# xmcd
#
# Track frame offsets:
#	150
#	13960
#	24247
#	34877
#	47020
#	59387
#	71487
#	79797
#
# Disc length: 1254 seconds
#
# Revision: 1
# Processed by: cddbd v1.5.1PL0 Copyright (c) Steve Scherf et al.
# Submitted via: audiograbber 1.83.01
#
DISCID=6204e408
DTITLE=Various Artist - Country Music Cavalcade Disk 3 Heart Of The Country
DYEAR=1997
DGENRE=Country
TTITLE0=Jimmy Dean - Big Bad John
TTITLE1=Carl Perkins - Blue Suede Shoes
TTITLE2=The Statler Brothers - Flowers On The Wall
TTITLE3=Johnnie Ray - Just Walking In The Rain
TTITLE4=Ray Price - Release Me
TTITLE5=Guy Mitchell - Heartaches By The Number
TTITLE6=Johnny Cash - Guess Things Happen That Way
TTITLE7=Marty Robbins - Don't Worry
EXTD=Disk 3 of 3 disks - Has Correct CD Title
EXTT0=
EXTT1=
EXTT2=
EXTT3=
EXTT4=
EXTT5=
EXTT6=
EXTT7=
PLAYORDER=
